<svg width="24" height="24" viewBox="0 0 18 20" fill="none" xmlns="http://www.w3.org/2000/svg">
<path d="M9.0025 0.970441C9.14399 0.767584 9.32577 0.596063 9.5365 0.46658C9.74722 0.337097 9.98237 0.25243 10.2273 0.217863C10.4722 0.183295 10.7216 0.199568 10.9599 0.265667C11.1982 0.331766 11.4204 0.446272 11.6125 0.602041L15.5365 3.78804C15.8871 4.07256 16.118 4.47845 16.1833 4.92523C16.2487 5.37201 16.1437 5.82702 15.8893 6.20004H14.4253L14.8933 5.52924C14.9804 5.40499 15.0172 5.25234 14.9963 5.10205C14.9753 4.95175 14.8982 4.81496 14.7805 4.71924L12.7597 3.08004L10.6045 6.20004H9.1441L11.8249 2.32164L10.8553 1.53444C10.7913 1.4825 10.7173 1.4443 10.6378 1.42224C10.5584 1.40017 10.4753 1.39471 10.3936 1.4062C10.312 1.41768 10.2336 1.44587 10.1634 1.48899C10.0931 1.53211 10.0325 1.58925 9.9853 1.65684L6.8161 6.19884H5.3521L9.0025 0.970441V0.970441ZM13.2001 13.4C13.041 13.4 12.8884 13.4633 12.7758 13.5758C12.6633 13.6883 12.6001 13.8409 12.6001 14C12.6001 14.1592 12.6633 14.3118 12.7758 14.4243C12.8884 14.5368 13.041 14.6 13.2001 14.6H14.4001C14.5592 14.6 14.7118 14.5368 14.8244 14.4243C14.9369 14.3118 15.0001 14.1592 15.0001 14C15.0001 13.8409 14.9369 13.6883 14.8244 13.5758C14.7118 13.4633 14.5592 13.4 14.4001 13.4H13.2001ZM2.4001 5.00004H5.0029L4.1629 6.20004H2.4001C2.24097 6.20004 2.08836 6.26325 1.97583 6.37578C1.86331 6.4883 1.8001 6.64091 1.8001 6.80004C1.8001 6.95917 1.86331 7.11178 1.97583 7.2243C2.08836 7.33683 2.24097 7.40004 2.4001 7.40004H15.0001C15.6366 7.40004 16.2471 7.6529 16.6972 8.10298C17.1472 8.55307 17.4001 9.16352 17.4001 9.80004V17C17.4001 17.6366 17.1472 18.247 16.6972 18.6971C16.2471 19.1472 15.6366 19.4 15.0001 19.4H3.6001C2.80445 19.4 2.04139 19.084 1.47878 18.5214C0.916168 17.9588 0.600098 17.1957 0.600098 16.4V6.80004C0.600098 6.32265 0.78974 5.86481 1.12731 5.52725C1.46487 5.18968 1.92271 5.00004 2.4001 5.00004V5.00004ZM1.8001 16.4C1.8001 16.8774 1.98974 17.3353 2.32731 17.6728C2.66487 18.0104 3.12271 18.2 3.6001 18.2H15.0001C15.3184 18.2 15.6236 18.0736 15.8486 17.8486C16.0737 17.6235 16.2001 17.3183 16.2001 17V9.80004C16.2001 9.48178 16.0737 9.17656 15.8486 8.95151C15.6236 8.72647 15.3184 8.60004 15.0001 8.60004H2.4001C2.1901 8.60004 1.9873 8.56404 1.8001 8.49804V16.4Z" fill="#3B5162"/>
</svg>
