<svg width="24" height="24" viewBox="0 0 25 25" fill="none" xmlns="http://www.w3.org/2000/svg">
<path d="M14.3499 1.06226C13.0981 0.546629 11.7017 0.546629 10.4499 1.06226L1.8144 4.62239C1.39727 4.79417 1.03962 5.09059 0.787525 5.47349C0.535429 5.85639 0.400426 6.30823 0.399902 6.77082V18.5803C0.399827 19.0434 0.534551 19.4959 0.786685 19.8794C1.03882 20.2629 1.39679 20.5598 1.8144 20.7318L10.4499 24.2888C11.7017 24.8044 13.0981 24.8044 14.3499 24.2888L22.9854 20.7318C23.403 20.5598 23.761 20.2629 24.0131 19.8794C24.2653 19.4959 24.4 19.0434 24.3999 18.5803V6.77082C24.3997 6.30797 24.2648 5.85579 24.0127 5.47259C23.7606 5.08938 23.4028 4.79272 22.9854 4.62085L14.3499 1.06226ZM11.0079 2.49867C11.902 2.13042 12.8993 2.13042 13.7934 2.49867L21.6309 5.72672L18.2124 7.13224L8.9814 3.33271L11.0064 2.49867H11.0079ZM6.9624 4.16212L16.1934 7.9632L12.3999 9.5278L3.1689 5.72518L6.9624 4.16367V4.16212ZM13.1499 10.8808L22.8999 6.86504V18.5787C22.9002 18.7332 22.8554 18.8842 22.7715 19.0123C22.6875 19.1403 22.5682 19.2394 22.4289 19.2969L13.7919 22.854C13.5819 22.9389 13.3674 23.0053 13.1499 23.0516V10.8808ZM11.6499 10.8808V23.0516C11.4306 23.0055 11.2158 22.9394 11.0079 22.854L2.3709 19.2969C2.23187 19.2395 2.11271 19.1406 2.02876 19.0129C1.94482 18.8852 1.89994 18.7345 1.8999 18.5803V6.86658L11.6499 10.8823V10.8808Z" fill="#3B5162"/>
</svg>
