<svg width="24" height="24" viewBox="0 0 20 20" fill="none" xmlns="http://www.w3.org/2000/svg">
<path d="M19.4002 3.6001C19.4002 2.80445 19.0841 2.04139 18.5215 1.47878C17.9589 0.916168 17.1958 0.600098 16.4002 0.600098H5.60019C4.80455 0.600098 4.04148 0.916168 3.47887 1.47878C2.91627 2.04139 2.60019 2.80445 2.60019 3.6001V8.1073C2.98179 7.9729 3.38379 7.8793 3.80019 7.8325V5.4001H18.2002V14.4001C18.2002 14.8775 18.0106 15.3353 17.673 15.6729C17.3354 16.0105 16.8776 16.2001 16.4002 16.2001H9.94539L11.1454 17.4001H16.4002C17.1958 17.4001 17.9589 17.084 18.5215 16.5214C19.0841 15.9588 19.4002 15.1957 19.4002 14.4001V3.6001ZM5.60019 1.8001H16.4002C16.8776 1.8001 17.3354 1.98974 17.673 2.32731C18.0106 2.66487 18.2002 3.12271 18.2002 3.6001V4.2001H3.80019V3.6001C3.80019 3.12271 3.98984 2.66487 4.3274 2.32731C4.66497 1.98974 5.12281 1.8001 5.60019 1.8001V1.8001ZM6.9154 16.5637C6.065 17.1996 5.00531 17.4898 3.94959 17.3759C2.89387 17.2619 1.92048 16.7524 1.22533 15.9497C0.530172 15.147 0.164854 14.1108 0.202894 13.0496C0.240933 11.9885 0.679507 10.9811 1.43035 10.2303C2.18119 9.47941 3.18857 9.04084 4.24974 9.0028C5.31091 8.96476 6.3471 9.33008 7.14978 10.0252C7.95246 10.7204 8.46203 11.6938 8.57596 12.7495C8.68988 13.8052 8.39969 14.8649 7.7638 15.7153L10.8238 18.7753C10.9365 18.8878 10.9998 19.0405 10.9999 19.1997C11 19.3589 10.9369 19.5116 10.8244 19.6243C10.7119 19.737 10.5592 19.8003 10.4 19.8004C10.2408 19.8005 10.0881 19.7374 9.97539 19.6249L6.9154 16.5649V16.5637ZM7.4002 13.2001C7.4002 12.4044 7.08412 11.6414 6.52152 11.0788C5.95891 10.5162 5.19584 10.2001 4.40019 10.2001C3.60455 10.2001 2.84148 10.5162 2.27887 11.0788C1.71627 11.6414 1.40019 12.4044 1.40019 13.2001C1.40019 13.9957 1.71627 14.7588 2.27887 15.3214C2.84148 15.884 3.60455 16.2001 4.40019 16.2001C5.19584 16.2001 5.95891 15.884 6.52152 15.3214C7.08412 14.7588 7.4002 13.9957 7.4002 13.2001V13.2001Z" fill="#3B5162"/>
</svg>
